<mxfile host="app.diagrams.net" modified="2023-09-19T16:53:40.149Z" agent="Mozilla/5.0 (X11; Ubuntu; Linux x86_64; rv:109.0) Gecko/20100101 Firefox/117.0" etag="mD1Yi-cw6jKx0aey_3gB" version="21.7.5" type="device">
  <diagram name="Page-1" id="ri4anvCGel_wYtRjSs9z">
    <mxGraphModel dx="828" dy="742" grid="1" gridSize="10" guides="1" tooltips="1" connect="1" arrows="1" fold="1" page="1" pageScale="1" pageWidth="827" pageHeight="1169" math="0" shadow="0">
      <root>
        <mxCell id="0" />
        <mxCell id="1" parent="0" />
        <mxCell id="vQDiU9HeTUrOOh70G-Bs-10" value="Photographie" style="swimlane;fontStyle=0;childLayout=stackLayout;horizontal=1;startSize=30;horizontalStack=0;resizeParent=1;resizeParentMax=0;resizeLast=0;collapsible=1;marginBottom=0;whiteSpace=wrap;html=1;fillColor=#dae8fc;strokeColor=#000000;" parent="1" vertex="1">
          <mxGeometry x="400" y="210" width="140" height="150" as="geometry" />
        </mxCell>
        <mxCell id="vQDiU9HeTUrOOh70G-Bs-11" value="&lt;u&gt;Code&lt;/u&gt; : Integer" style="text;strokeColor=default;fillColor=#dae8fc;align=left;verticalAlign=middle;spacingLeft=4;spacingRight=4;overflow=hidden;points=[[0,0.5],[1,0.5]];portConstraint=eastwest;rotatable=0;whiteSpace=wrap;html=1;" parent="vQDiU9HeTUrOOh70G-Bs-10" vertex="1">
          <mxGeometry y="30" width="140" height="30" as="geometry" />
        </mxCell>
        <mxCell id="vQDiU9HeTUrOOh70G-Bs-12" value="&lt;div&gt;Lieu : String&lt;/div&gt;" style="text;strokeColor=none;fillColor=#dae8fc;align=left;verticalAlign=middle;spacingLeft=4;spacingRight=4;overflow=hidden;points=[[0,0.5],[1,0.5]];portConstraint=eastwest;rotatable=0;whiteSpace=wrap;html=1;" parent="vQDiU9HeTUrOOh70G-Bs-10" vertex="1">
          <mxGeometry y="60" width="140" height="30" as="geometry" />
        </mxCell>
        <mxCell id="vQDiU9HeTUrOOh70G-Bs-13" value="Date réalisation : Date" style="text;strokeColor=none;fillColor=#dae8fc;align=left;verticalAlign=middle;spacingLeft=4;spacingRight=4;overflow=hidden;points=[[0,0.5],[1,0.5]];portConstraint=eastwest;rotatable=0;whiteSpace=wrap;html=1;" parent="vQDiU9HeTUrOOh70G-Bs-10" vertex="1">
          <mxGeometry y="90" width="140" height="30" as="geometry" />
        </mxCell>
        <mxCell id="vQDiU9HeTUrOOh70G-Bs-14" value="Licence : String" style="text;strokeColor=none;fillColor=#dae8fc;align=left;verticalAlign=middle;spacingLeft=4;spacingRight=4;overflow=hidden;points=[[0,0.5],[1,0.5]];portConstraint=eastwest;rotatable=0;whiteSpace=wrap;html=1;" parent="vQDiU9HeTUrOOh70G-Bs-10" vertex="1">
          <mxGeometry y="120" width="140" height="30" as="geometry" />
        </mxCell>
        <mxCell id="vQDiU9HeTUrOOh70G-Bs-16" value="" style="edgeStyle=orthogonalEdgeStyle;rounded=0;orthogonalLoop=1;jettySize=auto;html=1;endArrow=none;endFill=0;entryX=0;entryY=0.5;entryDx=0;entryDy=0;" parent="1" source="vQDiU9HeTUrOOh70G-Bs-15" target="vQDiU9HeTUrOOh70G-Bs-12" edge="1">
          <mxGeometry relative="1" as="geometry">
            <mxPoint x="430" y="295" as="targetPoint" />
          </mxGeometry>
        </mxCell>
        <mxCell id="vQDiU9HeTUrOOh70G-Bs-22" value="" style="edgeStyle=orthogonalEdgeStyle;rounded=0;orthogonalLoop=1;jettySize=auto;html=1;entryX=1.007;entryY=-0.133;entryDx=0;entryDy=0;entryPerimeter=0;endArrow=none;endFill=0;" parent="1" source="vQDiU9HeTUrOOh70G-Bs-15" target="vQDiU9HeTUrOOh70G-Bs-20" edge="1">
          <mxGeometry relative="1" as="geometry" />
        </mxCell>
        <mxCell id="vQDiU9HeTUrOOh70G-Bs-15" value="possède" style="ellipse;whiteSpace=wrap;html=1;fillColor=#ffe6cc;strokeColor=#d79b00;" parent="1" vertex="1">
          <mxGeometry x="260" y="290" width="80" height="30" as="geometry" />
        </mxCell>
        <mxCell id="vQDiU9HeTUrOOh70G-Bs-17" value="Configuration" style="swimlane;fontStyle=0;childLayout=stackLayout;horizontal=1;startSize=30;horizontalStack=0;resizeParent=1;resizeParentMax=0;resizeLast=0;collapsible=1;marginBottom=0;whiteSpace=wrap;html=1;fillColor=#dae8fc;strokeColor=#000000;" parent="1" vertex="1">
          <mxGeometry x="80" y="210" width="140" height="150" as="geometry" />
        </mxCell>
        <mxCell id="vQDiU9HeTUrOOh70G-Bs-18" value="&lt;div&gt;&lt;u&gt;IdConf&lt;/u&gt; : Integer&lt;/div&gt;" style="text;strokeColor=default;fillColor=#dae8fc;align=left;verticalAlign=middle;spacingLeft=4;spacingRight=4;overflow=hidden;points=[[0,0.5],[1,0.5]];portConstraint=eastwest;rotatable=0;whiteSpace=wrap;html=1;" parent="vQDiU9HeTUrOOh70G-Bs-17" vertex="1">
          <mxGeometry y="30" width="140" height="30" as="geometry" />
        </mxCell>
        <mxCell id="vQDiU9HeTUrOOh70G-Bs-19" value="Ouverture focale: Integer" style="text;strokeColor=none;fillColor=#dae8fc;align=left;verticalAlign=middle;spacingLeft=4;spacingRight=4;overflow=hidden;points=[[0,0.5],[1,0.5]];portConstraint=eastwest;rotatable=0;whiteSpace=wrap;html=1;" parent="vQDiU9HeTUrOOh70G-Bs-17" vertex="1">
          <mxGeometry y="60" width="140" height="30" as="geometry" />
        </mxCell>
        <mxCell id="vQDiU9HeTUrOOh70G-Bs-20" value="Temps exposition: String" style="text;strokeColor=none;fillColor=#dae8fc;align=left;verticalAlign=middle;spacingLeft=4;spacingRight=4;overflow=hidden;points=[[0,0.5],[1,0.5]];portConstraint=eastwest;rotatable=0;whiteSpace=wrap;html=1;" parent="vQDiU9HeTUrOOh70G-Bs-17" vertex="1">
          <mxGeometry y="90" width="140" height="30" as="geometry" />
        </mxCell>
        <mxCell id="vQDiU9HeTUrOOh70G-Bs-21" value="Flash: Integer" style="text;strokeColor=none;fillColor=#dae8fc;align=left;verticalAlign=middle;spacingLeft=4;spacingRight=4;overflow=hidden;points=[[0,0.5],[1,0.5]];portConstraint=eastwest;rotatable=0;whiteSpace=wrap;html=1;" parent="vQDiU9HeTUrOOh70G-Bs-17" vertex="1">
          <mxGeometry y="120" width="140" height="30" as="geometry" />
        </mxCell>
        <mxCell id="vQDiU9HeTUrOOh70G-Bs-24" value="&lt;b&gt;1,1&lt;/b&gt;" style="text;html=1;strokeColor=none;fillColor=none;align=center;verticalAlign=middle;whiteSpace=wrap;rounded=0;" parent="1" vertex="1">
          <mxGeometry x="200" y="270" width="60" height="20" as="geometry" />
        </mxCell>
        <mxCell id="vQDiU9HeTUrOOh70G-Bs-28" value="&lt;b&gt;°, n&lt;br&gt;&lt;/b&gt;" style="text;html=1;strokeColor=none;fillColor=none;align=center;verticalAlign=middle;whiteSpace=wrap;rounded=0;" parent="1" vertex="1">
          <mxGeometry x="354" y="265" width="60" height="20" as="geometry" />
        </mxCell>
        <mxCell id="vQDiU9HeTUrOOh70G-Bs-29" value="Appareil" style="swimlane;fontStyle=0;childLayout=stackLayout;horizontal=1;startSize=30;horizontalStack=0;resizeParent=1;resizeParentMax=0;resizeLast=0;collapsible=1;marginBottom=0;whiteSpace=wrap;html=1;fillColor=#dae8fc;strokeColor=#000000;" parent="1" vertex="1">
          <mxGeometry x="680" y="210" width="140" height="120" as="geometry" />
        </mxCell>
        <mxCell id="vQDiU9HeTUrOOh70G-Bs-30" value="&lt;u&gt;Identifiant&lt;/u&gt; : Integer" style="text;strokeColor=default;fillColor=#dae8fc;align=left;verticalAlign=middle;spacingLeft=4;spacingRight=4;overflow=hidden;points=[[0,0.5],[1,0.5]];portConstraint=eastwest;rotatable=0;whiteSpace=wrap;html=1;" parent="vQDiU9HeTUrOOh70G-Bs-29" vertex="1">
          <mxGeometry y="30" width="140" height="30" as="geometry" />
        </mxCell>
        <mxCell id="vQDiU9HeTUrOOh70G-Bs-31" value="marque : String" style="text;strokeColor=none;fillColor=#dae8fc;align=left;verticalAlign=middle;spacingLeft=4;spacingRight=4;overflow=hidden;points=[[0,0.5],[1,0.5]];portConstraint=eastwest;rotatable=0;whiteSpace=wrap;html=1;" parent="vQDiU9HeTUrOOh70G-Bs-29" vertex="1">
          <mxGeometry y="60" width="140" height="30" as="geometry" />
        </mxCell>
        <mxCell id="vQDiU9HeTUrOOh70G-Bs-32" value="" style="text;strokeColor=none;fillColor=#dae8fc;align=left;verticalAlign=middle;spacingLeft=4;spacingRight=4;overflow=hidden;points=[[0,0.5],[1,0.5]];portConstraint=eastwest;rotatable=0;whiteSpace=wrap;html=1;" parent="vQDiU9HeTUrOOh70G-Bs-29" vertex="1">
          <mxGeometry y="90" width="140" height="30" as="geometry" />
        </mxCell>
        <mxCell id="vQDiU9HeTUrOOh70G-Bs-37" value="" style="edgeStyle=orthogonalEdgeStyle;rounded=0;orthogonalLoop=1;jettySize=auto;html=1;endArrow=none;endFill=0;" parent="1" source="vQDiU9HeTUrOOh70G-Bs-34" edge="1">
          <mxGeometry relative="1" as="geometry">
            <mxPoint x="536" y="280" as="targetPoint" />
          </mxGeometry>
        </mxCell>
        <mxCell id="vQDiU9HeTUrOOh70G-Bs-38" value="" style="edgeStyle=orthogonalEdgeStyle;rounded=0;orthogonalLoop=1;jettySize=auto;html=1;endArrow=none;endFill=0;" parent="1" source="vQDiU9HeTUrOOh70G-Bs-34" edge="1">
          <mxGeometry relative="1" as="geometry">
            <mxPoint x="680" y="310" as="targetPoint" />
          </mxGeometry>
        </mxCell>
        <mxCell id="vQDiU9HeTUrOOh70G-Bs-34" value="prise" style="ellipse;whiteSpace=wrap;html=1;fillColor=#ffe6cc;strokeColor=#d79b00;" parent="1" vertex="1">
          <mxGeometry x="570" y="255" width="80" height="30" as="geometry" />
        </mxCell>
        <mxCell id="vQDiU9HeTUrOOh70G-Bs-42" value="&lt;b&gt;1, n&lt;br&gt;&lt;/b&gt;" style="text;html=1;strokeColor=none;fillColor=none;align=center;verticalAlign=middle;whiteSpace=wrap;rounded=0;" parent="1" vertex="1">
          <mxGeometry x="540" y="235" width="30" height="20" as="geometry" />
        </mxCell>
        <mxCell id="vQDiU9HeTUrOOh70G-Bs-43" value="&lt;b&gt;1, 1&lt;br&gt;&lt;/b&gt;" style="text;html=1;strokeColor=none;fillColor=none;align=center;verticalAlign=middle;whiteSpace=wrap;rounded=0;" parent="1" vertex="1">
          <mxGeometry x="650" y="245" width="30" height="20" as="geometry" />
        </mxCell>
        <mxCell id="xnC8yhh0jQ5ZpmauFNYn-1" value="Utlisateur" style="swimlane;fontStyle=0;childLayout=stackLayout;horizontal=1;startSize=30;horizontalStack=0;resizeParent=1;resizeParentMax=0;resizeLast=0;collapsible=1;marginBottom=0;whiteSpace=wrap;html=1;fillColor=#dae8fc;strokeColor=#000000;" parent="1" vertex="1">
          <mxGeometry x="670" y="410" width="140" height="120" as="geometry" />
        </mxCell>
        <mxCell id="xnC8yhh0jQ5ZpmauFNYn-3" value="&lt;u&gt;Identifiant&lt;/u&gt;: Integer" style="text;strokeColor=none;fillColor=#dae8fc;align=left;verticalAlign=middle;spacingLeft=4;spacingRight=4;overflow=hidden;points=[[0,0.5],[1,0.5]];portConstraint=eastwest;rotatable=0;whiteSpace=wrap;html=1;" parent="xnC8yhh0jQ5ZpmauFNYn-1" vertex="1">
          <mxGeometry y="30" width="140" height="30" as="geometry" />
        </mxCell>
        <mxCell id="xnC8yhh0jQ5ZpmauFNYn-11" value="Nom&#x9;:String" style="text;strokeColor=none;fillColor=#dae8fc;align=left;verticalAlign=middle;spacingLeft=4;spacingRight=4;overflow=hidden;points=[[0,0.5],[1,0.5]];portConstraint=eastwest;rotatable=0;whiteSpace=wrap;html=1;" parent="xnC8yhh0jQ5ZpmauFNYn-1" vertex="1">
          <mxGeometry y="60" width="140" height="30" as="geometry" />
        </mxCell>
        <mxCell id="xnC8yhh0jQ5ZpmauFNYn-2" value="Prénom&amp;nbsp;&amp;nbsp;&amp;nbsp; :String" style="text;strokeColor=none;fillColor=#dae8fc;align=left;verticalAlign=middle;spacingLeft=4;spacingRight=4;overflow=hidden;points=[[0,0.5],[1,0.5]];portConstraint=eastwest;rotatable=0;whiteSpace=wrap;html=1;" parent="xnC8yhh0jQ5ZpmauFNYn-1" vertex="1">
          <mxGeometry y="90" width="140" height="30" as="geometry" />
        </mxCell>
        <mxCell id="xnC8yhh0jQ5ZpmauFNYn-4" value="" style="edgeStyle=orthogonalEdgeStyle;rounded=0;orthogonalLoop=1;jettySize=auto;html=1;entryX=0.5;entryY=0;entryDx=0;entryDy=0;endArrow=none;endFill=0;" parent="1" source="xnC8yhh0jQ5ZpmauFNYn-5" target="xnC8yhh0jQ5ZpmauFNYn-1" edge="1">
          <mxGeometry relative="1" as="geometry" />
        </mxCell>
        <mxCell id="xnC8yhh0jQ5ZpmauFNYn-10" style="edgeStyle=orthogonalEdgeStyle;rounded=0;orthogonalLoop=1;jettySize=auto;html=1;exitX=0;exitY=0.5;exitDx=0;exitDy=0;entryX=0.75;entryY=1;entryDx=0;entryDy=0;endArrow=none;endFill=0;" parent="1" source="xnC8yhh0jQ5ZpmauFNYn-5" target="vQDiU9HeTUrOOh70G-Bs-10" edge="1">
          <mxGeometry relative="1" as="geometry" />
        </mxCell>
        <mxCell id="xnC8yhh0jQ5ZpmauFNYn-5" value="est publié" style="ellipse;whiteSpace=wrap;html=1;fillColor=#ffe6cc;strokeColor=#d79b00;" parent="1" vertex="1">
          <mxGeometry x="580" y="375" width="80" height="30" as="geometry" />
        </mxCell>
        <mxCell id="xnC8yhh0jQ5ZpmauFNYn-6" value="&lt;b&gt;1, n&lt;br&gt;&lt;/b&gt;" style="text;html=1;strokeColor=none;fillColor=none;align=center;verticalAlign=middle;whiteSpace=wrap;rounded=0;" parent="1" vertex="1">
          <mxGeometry x="510" y="360" width="30" height="20" as="geometry" />
        </mxCell>
        <mxCell id="xnC8yhh0jQ5ZpmauFNYn-7" value="&lt;b&gt;1, 1&lt;br&gt;&lt;/b&gt;" style="text;html=1;strokeColor=none;fillColor=none;align=center;verticalAlign=middle;whiteSpace=wrap;rounded=0;" parent="1" vertex="1">
          <mxGeometry x="750" y="380" width="30" height="20" as="geometry" />
        </mxCell>
      </root>
    </mxGraphModel>
  </diagram>
</mxfile>
